# xmcd
#
# Track frame offsets: 
#        150
#        107980
#        168535
#        221755
#
# Disc length: 3009 seconds
#
# Revision: 12
# Processed by: cddbd v1.5.2PL0 Copyright (c) Steve Scherf et al.
# Submitted via: ExactAudioCopy v0.99pb5
#
DISCID=380bbf04
DTITLE=Helene Grimaud, Kurt Sanderling, Staatskapelle Berlin - Brahms 
DTITLE=Piano Concerto No.1 in D minor, op.15
DYEAR=1998
DGENRE=Concerto
TTITLE0=I. Maestoso
TTITLE1=II. Adagio
TTITLE2=III. Rondo - Allegro non troppo
TTITLE3=Applause
EXTD=YEAR: 1998
EXTT0=
EXTT1=
EXTT2=
EXTT3=
PLAYORDER=
